<?xml version="1.0" encoding="utf-8"?>
<!-- Generator: Adobe Illustrator 24.2.3, SVG Export Plug-In . SVG Version: 6.00 Build 0)  -->
<svg version="1.1" id="Layer_1" xmlns="http://www.w3.org/2000/svg" xmlns:xlink="http://www.w3.org/1999/xlink" x="0px" y="0px"
	 viewBox="0 0 876.9 186.3" style="enable-background:new 0 0 876.9 186.3;" xml:space="preserve">
<style type="text/css">
	.st0{fill:#FFFFFF;}
</style>
<g>
	<path id="zomato-copy-10" class="st0" d="M133.6,44l-0.8,25.4l-66.2,71.9c27.6,0,45.2-0.3,55.3-0.8c-2.9,13.7-5.3,24.8-7.7,41.5
		c-13.3-1.1-34-1.4-54.7-1.4c-23.1,0-43.3,0.3-59.5,1.4l0.5-25.6l66.2-71.6c-29,0-39.6,0.3-51.5,0.6c2.7-12.8,4.5-27,6.4-41.3
		c21,0.8,29.2,1.1,56.6,1.1C103.3,45.2,117.7,44.9,133.6,44z M180.7,123.6c0,17,5.6,25.6,15.1,25.6c12.8,0,22.9-20.6,22.9-45.7
		c0-17.3-5.6-25.6-14.9-25.6C191,77.9,180.7,98.2,180.7,123.6z M267.5,101.5c0,46.3-32.7,84.7-76,84.7c-38.8,0-58.7-26.5-58.7-61
		c0-46,32.9-84.5,76-84.5C248.1,40.7,267.5,67.2,267.5,101.5z M788.2,123.6c0,17,5.6,25.6,15.1,25.6c12.8,0,22.8-20.6,22.8-45.7
		c0-17.3-5.6-25.6-14.9-25.6C798.6,77.9,788.2,98.2,788.2,123.6z M876.9,100.5c0,46.9-33.1,85.9-77,85.9
		c-39.3,0-59.5-26.8-59.5-61.9c0-46.6,33.4-85.6,77-85.6C857.2,38.9,876.9,65.8,876.9,100.5z M491,85.6c3.5-23.7,1.6-45.2-24.7-45.2
		c-19.1,0-39.9,16.2-54.5,43.2c3.2-22.3,1.3-43.2-24.7-43.2c-19.7,0-40.9,17-55.5,45.2c3.7-18.4,2.9-39.3,1.9-43.8
		c-15.1,2.5-28.4,3.9-47,4.5c0.5,12.8-0.3,29.5-2.7,45.4l-6.1,41.8c-2.4,16.4-5,35.4-7.7,47.4h49.4c0.3-7.2,2.1-18.7,3.5-28.7
		l4.2-28.7c3.5-18.7,18.3-40.7,29.8-40.7c6.6,0,6.4,6.4,4.5,18.4l-4.8,32.3c-2.4,16.4-5,35.4-7.7,47.4h50c0.3-7.2,1.9-18.7,3.2-28.7
		l4.2-28.7c3.5-18.7,18.3-40.7,29.8-40.7c6.6,0,6.4,6.1,5.3,14.5l-11.9,83.6H475L491,85.6z M729.7,141.6l-5.3,32.9
		c-8.2,4.5-23.7,10.9-41.5,10.9c-30.3,0-36.4-16.2-31.6-50.5l7.7-55.2h-14.9l4.2-35.7l16.3-0.8l6.1-25.9l46-17.3l-5.8,43.2h31.6
		c-1.1,4.5-4.8,29-5.8,36.5h-30.8l-6.9,51c-1.9,13.1-0.8,17.8,8.2,17.8C713.7,148.6,723.6,144.7,729.7,141.6z"/>
	<path id="a-copy-7" class="st0" d="M555.3,157.2c16.7-2,28.2-18.2,31-34.3l0.5-4.3c-7.2-1.6-17.6-2.8-27.7-1.6
		c-9.6,1.2-17.6,5.2-21.9,10.9c-3.2,4.1-4.9,9.1-4.2,15C534.2,151.9,544,158.6,555.3,157.2z M541.1,182.7
		c-23.6,2.9-39.2-6.5-43.8-27.8c-2.9-13.4,1.1-28.7,8.2-37.8c9.5-11.9,25-19.6,44-21.9c15.2-1.9,28.1-1,40.1,1.3l0.5-2.1
		c0.3-3.3,0.7-6.6,0.2-10.5c-1.2-10.1-9.2-16.1-28.9-13.7c-13.3,1.6-25.9,6.4-35.7,11.9l-9.5-28.8c13.3-7.6,30-13.4,49.2-15.8
		c36.6-4.5,62.4,7.2,65.7,34c0.9,7.1,1,14.7,0.1,21.6c-4.7,33.2-7.7,58.2-9,74.9c-0.2,2.6-0.2,7,0,13.4l-45.5,0
		c1-2.6,1.8-6.2,2.6-10.6c0.5-2.9,0.9-6.6,1.1-11.1C570.8,172.9,557.6,180.7,541.1,182.7z"/>
</g>
</svg>
