<?xml version="1.0" encoding="UTF-8"?>
<svg width="410px" height="117px" viewBox="0 0 410 117" version="1.1" xmlns="http://www.w3.org/2000/svg" xmlns:xlink="http://www.w3.org/1999/xlink">
    <title>Group</title>
    <g id="Page-1" stroke="none" stroke-width="1" fill="none" fill-rule="evenodd">
        <g id="square-eng" transform="translate(-758.000000, -1054.000000)" fill="#FFFFFF">
            <g id="Group" transform="translate(758.260000, 1054.000000)">
                <path d="M14.82,46 L14.82,3.58 L-1.13686838e-13,6.7 L-1.13686838e-13,12.1 L6.42,12.1 L6.42,46 L14.82,46 Z M44.52,46 L44.52,36.58 L49.32,36.58 L49.32,29.32 L44.52,29.32 L44.52,3.4 L36.18,3.4 L36.18,29.74 L28.32,29.74 L28.32,9.82 L19.32,9.82 L19.32,36.58 L36.12,36.58 L36.12,46 L44.52,46 Z M88.62,46 C96.62,46 102.57,44.1 106.47,40.3 C110.37,36.5 112.32,31.34 112.32,24.82 C112.32,18.3 110.32,13.21 106.32,9.55 C102.32,5.89 96.58,4.06 89.1,4.06 L89.1,4.06 L74.28,4.06 L74.28,46 L88.62,46 Z M89.58,37.72 L83.64,37.72 L83.64,12.22 L88.86,12.22 C93.62,12.22 97.15,13.33 99.45,15.55 C101.75,17.77 102.9,20.94 102.9,25.06 C102.9,29.18 101.75,32.32 99.45,34.48 C97.15,36.64 93.86,37.72 89.58,37.72 L89.58,37.72 Z M123.3,11.14 C124.78,11.14 126.03,10.63 127.05,9.61 C128.07,8.59 128.58,7.34 128.58,5.86 C128.58,4.38 128.07,3.13 127.05,2.11 C126.03,1.09 124.78,0.58 123.3,0.58 C121.82,0.58 120.57,1.09 119.55,2.11 C118.53,3.13 118.02,4.38 118.02,5.86 C118.02,7.34 118.52,8.6 119.52,9.64 C120.56,10.64 121.82,11.14 123.3,11.14 Z M127.8,46 L127.8,13.72 L118.8,13.72 L118.8,46 L127.8,46 Z M148.2,46.48 C151.8,46.48 154.77,45.52 157.11,43.6 C159.45,41.68 160.62,39.14 160.62,35.98 C160.62,32.78 159.5,30.5 157.26,29.14 C156.06,28.42 155.03,27.89 154.17,27.55 C153.31,27.21 151.86,26.72 149.82,26.08 C147.78,25.44 146.32,24.88 145.44,24.4 C144.56,23.92 144.12,23.26 144.12,22.42 C144.12,20.9 145.51,20.14 148.29,20.14 C151.07,20.14 153.86,21.1 156.66,23.02 L156.66,23.02 L160.02,17.02 C156.22,14.46 152.42,13.18 148.62,13.18 C144.82,13.18 141.72,14.12 139.32,16 C136.92,17.88 135.72,20.31 135.72,23.29 C135.72,26.27 136.94,28.52 139.38,30.04 C140.58,30.8 141.65,31.38 142.59,31.78 C143.53,32.18 144.89,32.66 146.67,33.22 C148.45,33.78 149.81,34.38 150.75,35.02 C151.69,35.66 152.16,36.36 152.16,37.12 C152.16,37.88 151.82,38.49 151.14,38.95 C150.46,39.41 149.54,39.64 148.38,39.64 C144.58,39.64 141,38.34 137.64,35.74 L137.64,35.74 L133.68,41.38 C135.76,43.06 138.1,44.33 140.7,45.19 C143.3,46.05 145.8,46.48 148.2,46.48 Z M178.11,46.48 C181.21,46.48 184.16,45.2 186.96,42.64 L186.96,42.64 L183.6,36.34 C182.44,37.86 181.02,38.62 179.34,38.62 C178.46,38.62 177.7,38.27 177.06,37.57 C176.42,36.87 176.1,35.9 176.1,34.66 L176.1,34.66 L176.1,20.74 L183.9,20.74 L183.9,13.72 L176.1,13.72 L176.1,4.06 L167.04,4.06 L167.04,35.08 C167.04,38.6 168.11,41.38 170.25,43.42 C172.39,45.46 175.01,46.48 178.11,46.48 Z M200.64,46 L200.64,32.02 C200.64,28.9 201.3,26.39 202.62,24.49 C203.94,22.59 205.94,21.64 208.62,21.64 L208.62,21.64 L210.36,21.64 L210.3,13.18 C208.5,13.22 206.73,13.7 204.99,14.62 C203.25,15.54 201.8,16.66 200.64,17.98 L200.64,17.98 L200.64,13.72 L191.64,13.72 L191.64,46 L200.64,46 Z M220.8,11.14 C222.28,11.14 223.53,10.63 224.55,9.61 C225.57,8.59 226.08,7.34 226.08,5.86 C226.08,4.38 225.57,3.13 224.55,2.11 C223.53,1.09 222.28,0.58 220.8,0.58 C219.32,0.58 218.07,1.09 217.05,2.11 C216.03,3.13 215.52,4.38 215.52,5.86 C215.52,7.34 216.02,8.6 217.02,9.64 C218.06,10.64 219.32,11.14 220.8,11.14 Z M225.3,46 L225.3,13.72 L216.3,13.72 L216.3,46 L225.3,46 Z M249.24,46.48 C254.08,46.48 258.58,44.32 262.74,40 L262.74,40 L257.4,34 C255,37 252.3,38.5 249.3,38.5 C247.02,38.5 245.03,37.74 243.33,36.22 C241.63,34.7 240.78,32.57 240.78,29.83 C240.78,27.09 241.63,24.95 243.33,23.41 C245.03,21.87 247.06,21.1 249.42,21.1 C250.9,21.1 252.39,21.44 253.89,22.12 C255.39,22.8 256.66,23.76 257.7,25 L257.7,25 L262.38,18.88 C260.58,17 258.49,15.58 256.11,14.62 C253.73,13.66 251.38,13.18 249.06,13.18 C244.42,13.18 240.41,14.73 237.03,17.83 C233.65,20.93 231.96,24.95 231.96,29.89 C231.96,34.83 233.63,38.83 236.97,41.89 C240.31,44.95 244.4,46.48 249.24,46.48 Z M279.81,46.48 C282.91,46.48 285.86,45.2 288.66,42.64 L288.66,42.64 L285.3,36.34 C284.14,37.86 282.72,38.62 281.04,38.62 C280.16,38.62 279.4,38.27 278.76,37.57 C278.12,36.87 277.8,35.9 277.8,34.66 L277.8,34.66 L277.8,20.74 L285.6,20.74 L285.6,13.72 L277.8,13.72 L277.8,4.06 L268.74,4.06 L268.74,35.08 C268.74,38.6 269.81,41.38 271.95,43.42 C274.09,45.46 276.71,46.48 279.81,46.48 Z M305.22,46.48 C308.82,46.48 311.79,45.52 314.13,43.6 C316.47,41.68 317.64,39.14 317.64,35.98 C317.64,32.78 316.52,30.5 314.28,29.14 C313.08,28.42 312.05,27.89 311.19,27.55 C310.33,27.21 308.88,26.72 306.84,26.08 C304.8,25.44 303.34,24.88 302.46,24.4 C301.58,23.92 301.14,23.26 301.14,22.42 C301.14,20.9 302.53,20.14 305.31,20.14 C308.09,20.14 310.88,21.1 313.68,23.02 L313.68,23.02 L317.04,17.02 C313.24,14.46 309.44,13.18 305.64,13.18 C301.84,13.18 298.74,14.12 296.34,16 C293.94,17.88 292.74,20.31 292.74,23.29 C292.74,26.27 293.96,28.52 296.4,30.04 C297.6,30.8 298.67,31.38 299.61,31.78 C300.55,32.18 301.91,32.66 303.69,33.22 C305.47,33.78 306.83,34.38 307.77,35.02 C308.71,35.66 309.18,36.36 309.18,37.12 C309.18,37.88 308.84,38.49 308.16,38.95 C307.48,39.41 306.56,39.64 305.4,39.64 C301.6,39.64 298.02,38.34 294.66,35.74 L294.66,35.74 L290.7,41.38 C292.78,43.06 295.12,44.33 297.72,45.19 C300.32,46.05 302.82,46.48 305.22,46.48 Z" id="14Districts" fill-rule="nonzero"></path>
                <path d="M407.74,22 L344.74,22 L344.74,9.5303055 L395.086535,9.5303055 L395.086535,0 L403.106404,0 L407.74,22 Z M397.74,76.8616325 C397.74,90.5095983 389.357755,95 376.237726,95 C361.842201,95 356.74,87.3396614 356.74,79.3271469 L356.74,67 L363.487756,67 L363.487756,76.2135808 L375.977732,76.2135808 L375.799444,67 L397.74,67 L397.74,76.8616325 Z M375.086307,53.2205595 L374.870751,41.5831977 L395.409025,41.5831977 L395.409025,28 L363.210446,28 L363.210446,53.2205595 L344.74,53.2205595 L344.74,79.6603163 C344.74,99.4011885 358.543902,109 377.098552,109 C398.252567,109 408.74,96.4130627 408.74,79.6603163 L408.74,53.2205595 L375.086307,53.2205595 Z" id="Fill-2"></path>
                <path d="M183.142,107 L183.142,79.896 L188.334,79.896 L188.334,75.672 L173.462,75.672 L173.462,79.896 L178.654,79.896 L178.654,107 L183.142,107 Z M191.81,107 L191.81,93.756 C191.81,92.8466667 191.956667,92.084 192.25,91.468 C192.543333,90.852 192.924667,90.3533333 193.394,89.972 C193.834,89.5906667 194.325333,89.3193333 194.868,89.158 C195.410667,88.9966667 195.916667,88.916 196.386,88.916 C196.855333,88.916 197.31,89.004 197.75,89.18 L197.75,89.18 L197.75,84.428 C196.459333,84.428 195.374,84.6626667 194.494,85.132 C193.614,85.6013333 192.719333,86.2466667 191.81,87.068 L191.81,87.068 L191.81,84.692 L187.322,84.692 L187.322,107 L191.81,107 Z M204.174,107.264 C205.200667,107.264 206.044,107.036667 206.704,106.582 C207.364,106.127333 207.928667,105.548 208.398,104.844 L208.398,104.844 L208.486,104.844 L208.486,107 L212.974,107 L212.974,84.692 L208.486,84.692 L208.486,99.696 C208.486,100.693333 208.324667,101.456 208.002,101.984 C207.679333,102.512 207.092667,102.776 206.242,102.776 C205.538,102.776 204.995333,102.541333 204.614,102.072 C204.232667,101.602667 204.042,100.957333 204.042,100.136 L204.042,100.136 L204.042,84.692 L199.554,84.692 L199.554,101.808 C199.554,102.805333 199.686,103.648667 199.95,104.338 C200.214,105.027333 200.566,105.592 201.006,106.032 C201.446,106.472 201.944667,106.787333 202.502,106.978 C203.059333,107.168667 203.616667,107.264 204.174,107.264 Z M223.094,107.264 L223.094,103.04 C222.243333,102.952 221.664,102.754 221.356,102.446 C221.048,102.138 220.894,101.558667 220.894,100.708 L220.894,100.708 L220.894,75.672 L216.406,75.672 L216.406,101.016 C216.406,102.336 216.56,103.399333 216.868,104.206 C217.176,105.012667 217.623333,105.636 218.21,106.076 C218.796667,106.545333 219.500667,106.860667 220.322,107.022 C221.143333,107.183333 222.067333,107.264 223.094,107.264 L223.094,107.264 Z M225.91,116.02 C226.584667,116.02 227.237333,115.939333 227.868,115.778 C228.498667,115.616667 229.092667,115.330667 229.65,114.92 C230.207333,114.509333 230.698667,113.981333 231.124,113.336 C231.549333,112.690667 231.879333,111.869333 232.114,110.872 L232.114,110.872 L238.538,84.692 L233.918,84.692 L230.882,98.596 L230.794,98.596 L227.714,84.692 L222.962,84.692 L229.078,105.988 C228.814,107.308 228.579333,108.342 228.374,109.09 C228.168667,109.838 227.948667,110.417333 227.714,110.828 C227.45,111.238667 227.156667,111.502667 226.834,111.62 C226.511333,111.737333 226.13,111.796 225.69,111.796 L225.69,111.796 L224.678,111.796 L224.678,116.02 L225.91,116.02 Z M254.95,107.264 L254.95,103.04 C254.099333,102.952 253.52,102.754 253.212,102.446 C252.904,102.138 252.75,101.558667 252.75,100.708 L252.75,100.708 L252.75,75.672 L248.262,75.672 L248.262,101.016 C248.262,102.336 248.416,103.399333 248.724,104.206 C249.032,105.012667 249.479333,105.636 250.066,106.076 C250.652667,106.545333 251.356667,106.860667 252.178,107.022 C252.999333,107.183333 253.923333,107.264 254.95,107.264 L254.95,107.264 Z M263.002,107.264 C264.41,107.264 265.605333,106.970667 266.588,106.384 C267.570667,105.797333 268.326,105.02 268.854,104.052 C269.176667,103.465333 269.396667,102.790667 269.514,102.028 C269.631333,101.265333 269.69,100.429333 269.69,99.52 L269.69,99.52 L269.69,92.172 C269.69,91.2626667 269.631333,90.4266667 269.514,89.664 C269.396667,88.9013333 269.176667,88.2266667 268.854,87.64 C268.326,86.672 267.570667,85.8946667 266.588,85.308 C265.605333,84.7213333 264.41,84.428 263.002,84.428 C261.594,84.428 260.398667,84.7213333 259.416,85.308 C258.433333,85.8946667 257.678,86.672 257.15,87.64 C256.827333,88.2266667 256.607333,88.9013333 256.49,89.664 C256.372667,90.4266667 256.314,91.2626667 256.314,92.172 L256.314,92.172 L256.314,99.52 C256.314,100.429333 256.372667,101.265333 256.49,102.028 C256.607333,102.790667 256.827333,103.465333 257.15,104.052 C257.678,105.02 258.433333,105.797333 259.416,106.384 C260.398667,106.970667 261.594,107.264 263.002,107.264 Z M263.002,102.776 C262.327333,102.776 261.792,102.563333 261.396,102.138 C261,101.712667 260.802,101.074667 260.802,100.224 L260.802,100.224 L260.802,91.468 C260.802,90.6173333 261,89.9793333 261.396,89.554 C261.792,89.1286667 262.327333,88.916 263.002,88.916 C263.676667,88.916 264.212,89.1286667 264.608,89.554 C265.004,89.9793333 265.202,90.6173333 265.202,91.468 L265.202,91.468 L265.202,100.224 C265.202,101.074667 265.004,101.712667 264.608,102.138 C264.212,102.563333 263.676667,102.776 263.002,102.776 Z M279.942,107.264 C280.968667,107.264 281.892667,107.088 282.714,106.736 C283.535333,106.384 284.239333,105.9 284.826,105.284 C286.028667,104.081333 286.63,102.497333 286.63,100.532 L286.63,100.532 L282.142,100.532 C282.083333,101.030667 281.914667,101.529333 281.636,102.028 C281.357333,102.526667 280.792667,102.776 279.942,102.776 C279.267333,102.776 278.732,102.585333 278.336,102.204 C277.94,101.822667 277.742,101.28 277.742,100.576 L277.742,100.576 L277.742,91.468 C277.742,90.6173333 277.94,89.9793333 278.336,89.554 C278.732,89.1286667 279.267333,88.916 279.942,88.916 C280.616667,88.916 281.152,89.1286667 281.548,89.554 C281.944,89.9793333 282.142,90.6466667 282.142,91.556 L282.142,91.556 L286.63,91.556 C286.63,89.444 286.043333,87.728 284.87,86.408 C284.283333,85.792 283.572,85.308 282.736,84.956 C281.9,84.604 280.968667,84.428 279.942,84.428 C278.534,84.428 277.338667,84.7213333 276.356,85.308 C275.373333,85.8946667 274.618,86.672 274.09,87.64 C273.767333,88.2266667 273.547333,88.9013333 273.43,89.664 C273.312667,90.4266667 273.254,91.2626667 273.254,92.172 L273.254,92.172 L273.254,99.52 C273.254,100.429333 273.312667,101.265333 273.43,102.028 C273.547333,102.790667 273.767333,103.465333 274.09,104.052 C274.618,105.02 275.373333,105.797333 276.356,106.384 C277.338667,106.970667 278.534,107.264 279.942,107.264 Z M293.362,107.264 C294.447333,107.264 295.290667,107.044 295.892,106.604 C296.493333,106.164 297.087333,105.533333 297.674,104.712 L297.674,104.712 L297.762,104.712 L297.762,107 L302.25,107 L302.25,91.468 C302.25,90.2946667 302.074,89.268 301.722,88.388 C301.37,87.508 300.900667,86.7746667 300.314,86.188 C299.698,85.6013333 298.979333,85.1613333 298.158,84.868 C297.336667,84.5746667 296.456667,84.428 295.518,84.428 C294.491333,84.428 293.567333,84.5966667 292.746,84.934 C291.924667,85.2713333 291.220667,85.7333333 290.634,86.32 C289.402,87.552 288.727333,89.1653333 288.61,91.16 L288.61,91.16 L292.966,91.16 C293.112667,90.4266667 293.428,89.8693333 293.912,89.488 C294.396,89.1066667 294.931333,88.916 295.518,88.916 C296.368667,88.916 296.955333,89.1653333 297.278,89.664 C297.600667,90.1626667 297.762,90.7933333 297.762,91.556 L297.762,91.556 L297.762,93.888 C297.527333,93.8586667 297.307333,93.844 297.102,93.844 C296.896667,93.844 296.720667,93.8293333 296.574,93.8 C296.427333,93.7706667 296.266,93.756 296.09,93.756 L296.09,93.756 L295.606,93.756 C294.198,93.756 293.039333,93.91 292.13,94.218 C291.220667,94.526 290.502,94.988 289.974,95.604 C289.416667,96.2493333 289.035333,97.0486667 288.83,98.002 C288.624667,98.9553333 288.522,100.062667 288.522,101.324 C288.522,102.556 288.676,103.560667 288.984,104.338 C289.292,105.115333 289.695333,105.709333 290.194,106.12 C290.692667,106.56 291.213333,106.860667 291.756,107.022 C292.298667,107.183333 292.834,107.264 293.362,107.264 Z M295.342,103.304 C294.608667,103.304 294.036667,103.04 293.626,102.512 C293.215333,101.984 293.01,101.294667 293.01,100.444 C293.01,99.2413333 293.354667,98.4126667 294.044,97.958 C294.733333,97.5033333 295.562,97.276 296.53,97.276 C296.852667,97.276 297.263333,97.32 297.762,97.408 L297.762,97.408 L297.762,100.444 C297.762,101.353333 297.549333,102.057333 297.124,102.556 C296.698667,103.054667 296.104667,103.304 295.342,103.304 Z M311.974,107.264 L311.974,103.04 C311.123333,102.952 310.544,102.754 310.236,102.446 C309.928,102.138 309.774,101.558667 309.774,100.708 L309.774,100.708 L309.774,75.672 L305.286,75.672 L305.286,101.016 C305.286,102.336 305.44,103.399333 305.748,104.206 C306.056,105.012667 306.503333,105.636 307.09,106.076 C307.676667,106.545333 308.380667,106.860667 309.202,107.022 C310.023333,107.183333 310.947333,107.264 311.974,107.264 L311.974,107.264 Z" id="Trulylocal" fill-rule="nonzero"></path>
            </g>
        </g>
    </g>
</svg>