<?xml version="1.0" encoding="UTF-8"?>
<svg width="410px" height="109px" viewBox="0 0 410 109" version="1.1" xmlns="http://www.w3.org/2000/svg" xmlns:xlink="http://www.w3.org/1999/xlink">
    <title>Group</title>
    <g id="Page-1" stroke="none" stroke-width="1" fill="none" fill-rule="evenodd">
        <g id="square-mal" transform="translate(-758.000000, -1054.000000)" fill="#FFFFFF">
            <g id="Group" transform="translate(758.260000, 1054.000000)">
                <path d="M14.82,46 L14.82,3.58 L-3.41060513e-13,6.7 L-3.41060513e-13,12.1 L6.42,12.1 L6.42,46 L14.82,46 Z M44.52,46 L44.52,36.58 L49.32,36.58 L49.32,29.32 L44.52,29.32 L44.52,3.4 L36.18,3.4 L36.18,29.74 L28.32,29.74 L28.32,9.82 L19.32,9.82 L19.32,36.58 L36.12,36.58 L36.12,46 L44.52,46 Z M88.62,46 C96.62,46 102.57,44.1 106.47,40.3 C110.37,36.5 112.32,31.34 112.32,24.82 C112.32,18.3 110.32,13.21 106.32,9.55 C102.32,5.89 96.58,4.06 89.1,4.06 L89.1,4.06 L74.28,4.06 L74.28,46 L88.62,46 Z M89.58,37.72 L83.64,37.72 L83.64,12.22 L88.86,12.22 C93.62,12.22 97.15,13.33 99.45,15.55 C101.75,17.77 102.9,20.94 102.9,25.06 C102.9,29.18 101.75,32.32 99.45,34.48 C97.15,36.64 93.86,37.72 89.58,37.72 L89.58,37.72 Z M123.3,11.14 C124.78,11.14 126.03,10.63 127.05,9.61 C128.07,8.59 128.58,7.34 128.58,5.86 C128.58,4.38 128.07,3.13 127.05,2.11 C126.03,1.09 124.78,0.58 123.3,0.58 C121.82,0.58 120.57,1.09 119.55,2.11 C118.53,3.13 118.02,4.38 118.02,5.86 C118.02,7.34 118.52,8.6 119.52,9.64 C120.56,10.64 121.82,11.14 123.3,11.14 Z M127.8,46 L127.8,13.72 L118.8,13.72 L118.8,46 L127.8,46 Z M148.2,46.48 C151.8,46.48 154.77,45.52 157.11,43.6 C159.45,41.68 160.62,39.14 160.62,35.98 C160.62,32.78 159.5,30.5 157.26,29.14 C156.06,28.42 155.03,27.89 154.17,27.55 C153.31,27.21 151.86,26.72 149.82,26.08 C147.78,25.44 146.32,24.88 145.44,24.4 C144.56,23.92 144.12,23.26 144.12,22.42 C144.12,20.9 145.51,20.14 148.29,20.14 C151.07,20.14 153.86,21.1 156.66,23.02 L156.66,23.02 L160.02,17.02 C156.22,14.46 152.42,13.18 148.62,13.18 C144.82,13.18 141.72,14.12 139.32,16 C136.92,17.88 135.72,20.31 135.72,23.29 C135.72,26.27 136.94,28.52 139.38,30.04 C140.58,30.8 141.65,31.38 142.59,31.78 C143.53,32.18 144.89,32.66 146.67,33.22 C148.45,33.78 149.81,34.38 150.75,35.02 C151.69,35.66 152.16,36.36 152.16,37.12 C152.16,37.88 151.82,38.49 151.14,38.95 C150.46,39.41 149.54,39.64 148.38,39.64 C144.58,39.64 141,38.34 137.64,35.74 L137.64,35.74 L133.68,41.38 C135.76,43.06 138.1,44.33 140.7,45.19 C143.3,46.05 145.8,46.48 148.2,46.48 Z M178.11,46.48 C181.21,46.48 184.16,45.2 186.96,42.64 L186.96,42.64 L183.6,36.34 C182.44,37.86 181.02,38.62 179.34,38.62 C178.46,38.62 177.7,38.27 177.06,37.57 C176.42,36.87 176.1,35.9 176.1,34.66 L176.1,34.66 L176.1,20.74 L183.9,20.74 L183.9,13.72 L176.1,13.72 L176.1,4.06 L167.04,4.06 L167.04,35.08 C167.04,38.6 168.11,41.38 170.25,43.42 C172.39,45.46 175.01,46.48 178.11,46.48 Z M200.64,46 L200.64,32.02 C200.64,28.9 201.3,26.39 202.62,24.49 C203.94,22.59 205.94,21.64 208.62,21.64 L208.62,21.64 L210.36,21.64 L210.3,13.18 C208.5,13.22 206.73,13.7 204.99,14.62 C203.25,15.54 201.8,16.66 200.64,17.98 L200.64,17.98 L200.64,13.72 L191.64,13.72 L191.64,46 L200.64,46 Z M220.8,11.14 C222.28,11.14 223.53,10.63 224.55,9.61 C225.57,8.59 226.08,7.34 226.08,5.86 C226.08,4.38 225.57,3.13 224.55,2.11 C223.53,1.09 222.28,0.58 220.8,0.58 C219.32,0.58 218.07,1.09 217.05,2.11 C216.03,3.13 215.52,4.38 215.52,5.86 C215.52,7.34 216.02,8.6 217.02,9.64 C218.06,10.64 219.32,11.14 220.8,11.14 Z M225.3,46 L225.3,13.72 L216.3,13.72 L216.3,46 L225.3,46 Z M249.24,46.48 C254.08,46.48 258.58,44.32 262.74,40 L262.74,40 L257.4,34 C255,37 252.3,38.5 249.3,38.5 C247.02,38.5 245.03,37.74 243.33,36.22 C241.63,34.7 240.78,32.57 240.78,29.83 C240.78,27.09 241.63,24.95 243.33,23.41 C245.03,21.87 247.06,21.1 249.42,21.1 C250.9,21.1 252.39,21.44 253.89,22.12 C255.39,22.8 256.66,23.76 257.7,25 L257.7,25 L262.38,18.88 C260.58,17 258.49,15.58 256.11,14.62 C253.73,13.66 251.38,13.18 249.06,13.18 C244.42,13.18 240.41,14.73 237.03,17.83 C233.65,20.93 231.96,24.95 231.96,29.89 C231.96,34.83 233.63,38.83 236.97,41.89 C240.31,44.95 244.4,46.48 249.24,46.48 Z M279.81,46.48 C282.91,46.48 285.86,45.2 288.66,42.64 L288.66,42.64 L285.3,36.34 C284.14,37.86 282.72,38.62 281.04,38.62 C280.16,38.62 279.4,38.27 278.76,37.57 C278.12,36.87 277.8,35.9 277.8,34.66 L277.8,34.66 L277.8,20.74 L285.6,20.74 L285.6,13.72 L277.8,13.72 L277.8,4.06 L268.74,4.06 L268.74,35.08 C268.74,38.6 269.81,41.38 271.95,43.42 C274.09,45.46 276.71,46.48 279.81,46.48 Z M305.22,46.48 C308.82,46.48 311.79,45.52 314.13,43.6 C316.47,41.68 317.64,39.14 317.64,35.98 C317.64,32.78 316.52,30.5 314.28,29.14 C313.08,28.42 312.05,27.89 311.19,27.55 C310.33,27.21 308.88,26.72 306.84,26.08 C304.8,25.44 303.34,24.88 302.46,24.4 C301.58,23.92 301.14,23.26 301.14,22.42 C301.14,20.9 302.53,20.14 305.31,20.14 C308.09,20.14 310.88,21.1 313.68,23.02 L313.68,23.02 L317.04,17.02 C313.24,14.46 309.44,13.18 305.64,13.18 C301.84,13.18 298.74,14.12 296.34,16 C293.94,17.88 292.74,20.31 292.74,23.29 C292.74,26.27 293.96,28.52 296.4,30.04 C297.6,30.8 298.67,31.38 299.61,31.78 C300.55,32.18 301.91,32.66 303.69,33.22 C305.47,33.78 306.83,34.38 307.77,35.02 C308.71,35.66 309.18,36.36 309.18,37.12 C309.18,37.88 308.84,38.49 308.16,38.95 C307.48,39.41 306.56,39.64 305.4,39.64 C301.6,39.64 298.02,38.34 294.66,35.74 L294.66,35.74 L290.7,41.38 C292.78,43.06 295.12,44.33 297.72,45.19 C300.32,46.05 302.82,46.48 305.22,46.48 Z" id="14Districts" fill-rule="nonzero"></path>
                <path d="M407.74,22 L344.74,22 L344.74,9.5303055 L395.086535,9.5303055 L395.086535,0 L403.106404,0 L407.74,22 Z M397.74,76.8616325 C397.74,90.5095983 389.357755,95 376.237726,95 C361.842201,95 356.74,87.3396614 356.74,79.3271469 L356.74,67 L363.487756,67 L363.487756,76.2135808 L375.977732,76.2135808 L375.799444,67 L397.74,67 L397.74,76.8616325 Z M375.086307,53.2205595 L374.870751,41.5831977 L395.409025,41.5831977 L395.409025,28 L363.210446,28 L363.210446,53.2205595 L344.74,53.2205595 L344.74,79.6603163 C344.74,99.4011885 358.543902,109 377.098552,109 C398.252567,109 408.74,96.4130627 408.74,79.6603163 L408.74,53.2205595 L375.086307,53.2205595 Z" id="Fill-2"></path>
                <path d="M144.315195,107.556641 C146.02418,107.556641 147.327891,107.400391 148.226328,107.087891 C151.019297,106.111328 152.415781,104.109375 152.415781,101.082031 L152.415781,101.082031 L152.415781,86.0234375 C152.415781,84.34375 151.878672,83.1132812 150.804453,82.3320312 L150.804453,82.3320312 L153.558359,82.3320312 C154.105234,82.3320312 154.613047,82.5664062 155.081797,83.0351562 C155.550547,83.5039062 155.784922,84.1386719 155.784922,84.9394531 L155.784922,84.9394531 L155.784922,100.701172 C155.784922,102.458984 155.003672,103.337891 153.441172,103.337891 L153.441172,103.337891 L153.441172,107.234375 C158.577891,107.234375 161.14625,105.271484 161.14625,101.345703 L161.14625,101.345703 L161.14625,84.5292969 C161.14625,83.5722656 160.931406,82.7128906 160.501719,81.9511719 C159.154062,79.5683594 156.839609,78.3769531 153.558359,78.3769531 L153.558359,78.3769531 L150.687266,78.3769531 C148.187266,78.3769531 146.351328,78.875 145.179453,79.8710938 C144.007578,78.875 142.318125,78.3769531 140.111094,78.3769531 L140.111094,78.3769531 L136.624766,78.3769531 C135.648203,78.3769531 134.710703,78.5332031 133.812266,78.8457031 C130.648203,79.9394531 129.056406,81.9316406 129.036875,84.8222656 L129.036875,84.8222656 L129.036875,101.111328 C129.036875,102.087891 129.212656,102.957031 129.564219,103.71875 C130.657969,106.101562 132.933359,107.292969 136.390391,107.292969 L136.390391,107.292969 L136.390391,103.396484 C135.062266,103.396484 134.398203,102.517578 134.398203,100.759766 L134.398203,100.759766 L134.398203,84.9394531 C134.398203,84.1386719 134.632578,83.5039062 135.101328,83.0351562 C135.570078,82.5664062 136.077891,82.3320312 136.624766,82.3320312 L136.624766,82.3320312 L139.495859,82.3320312 C138.187266,82.9179688 137.532969,84.1484375 137.532969,86.0234375 L137.532969,86.0234375 L137.532969,101.082031 C137.532969,103.015625 138.236094,104.578125 139.642344,105.769531 C141.048594,106.960938 142.606211,107.556641 144.315195,107.556641 Z M145.032969,103.630859 C143.529062,103.630859 142.777109,102.683594 142.777109,100.789062 L142.777109,100.789062 L142.777109,86.4921875 C142.777109,84.6953125 143.558359,83.6992188 145.120859,83.5039062 C146.566172,83.796875 147.288828,84.7929688 147.288828,86.4921875 L147.288828,86.4921875 L147.288828,100.789062 C147.288828,102.683594 146.536875,103.630859 145.032969,103.630859 Z M181.507578,107.263672 C182.620859,107.263672 183.626719,107.117188 184.525156,106.824219 C187.415781,105.886719 188.861094,103.992188 188.861094,101.140625 L188.861094,101.140625 L188.861094,84.1484375 C188.861094,82.3125 188.157969,80.7792969 186.751719,79.5488281 C186.087656,78.9824219 185.321055,78.5429688 184.451914,78.2304688 C183.582773,77.9179688 182.264414,77.7617188 180.496836,77.7617188 C178.729258,77.7617188 177.337656,78.3769531 176.322031,79.6074219 C175.306406,78.3574219 173.948984,77.7275391 172.249766,77.7177734 C170.550547,77.7080078 169.27125,77.859375 168.411875,78.171875 C165.443125,79.1875 163.968516,81.1796875 163.987855,84.1484375 L163.987855,84.1484375 L163.987855,101.111328 C164.007578,102.107422 164.193125,102.976562 164.544687,103.71875 C165.6775,106.0625 167.962656,107.234375 171.400156,107.234375 L171.400156,107.234375 L171.400156,103.337891 C169.993906,103.337891 169.290781,102.478516 169.290781,100.759766 L169.290781,100.759766 L169.290781,84.0019531 C169.290781,83.6699219 169.456797,83.2109375 169.788828,82.625 C170.120859,82.0390625 170.794687,81.7460938 171.810312,81.7460938 C173.294687,81.7460938 174.036875,82.4394531 174.036875,83.8261719 L174.036875,83.8261719 L174.036875,107 L178.812266,107 L178.812266,83.8554688 C178.812266,83.25 179.085703,82.7519531 179.632578,82.3613281 C180.179453,81.9707031 180.667734,81.7753906 181.097422,81.7753906 C181.527109,81.7753906 182.044687,81.9121094 182.650156,82.1855469 C183.255625,82.4589844 183.558359,83.0742188 183.558359,84.03125 L183.558359,84.03125 L183.558359,100.789062 C183.558359,102.507812 182.874766,103.367188 181.507578,103.367188 L181.507578,103.367188 L181.507578,107.263672 Z M197.034922,106.853516 L197.034922,71.4042969 C197.034922,69.7050781 196.322031,68.3476562 194.89625,67.3320312 C193.470469,66.3164062 192.04957,65.8085938 190.633555,65.8085938 C189.217539,65.8085938 188.099375,65.9355469 187.279062,66.1894531 C184.27125,67.1074219 182.777109,68.8359375 182.796641,71.375 L182.796641,71.375 L182.825937,75.9453125 L187.659922,75.9453125 L187.630625,72.2832031 C187.630625,70.6230469 188.323984,69.7929688 189.710703,69.7929688 C189.984141,69.7929688 190.389414,69.9443359 190.926523,70.2470703 C191.463633,70.5498047 191.732187,71.140625 191.732187,72.0195312 L191.732187,72.0195312 L191.732187,106.853516 L197.034922,106.853516 Z M234.095469,107.263672 C235.20875,107.263672 236.214609,107.117188 237.113047,106.824219 C240.003672,105.886719 241.448984,103.992188 241.448984,101.140625 L241.448984,101.140625 L241.448984,84.1484375 C241.448984,82.3125 240.745859,80.7792969 239.339609,79.5488281 C238.675547,78.9824219 237.908945,78.5429688 237.039805,78.2304688 C236.170664,77.9179688 234.852305,77.7617188 233.084727,77.7617188 C231.317148,77.7617188 229.925547,78.3769531 228.909922,79.6074219 C227.894297,78.3574219 226.536875,77.7275391 224.837656,77.7177734 C223.138437,77.7080078 221.859141,77.859375 220.999766,78.171875 C218.031016,79.1875 216.556406,81.1796875 216.575746,84.1484375 L216.575746,84.1484375 L216.575746,101.111328 C216.595469,102.107422 216.781016,102.976562 217.132578,103.71875 C218.265391,106.0625 220.550547,107.234375 223.988047,107.234375 L223.988047,107.234375 L223.988047,103.337891 C222.581797,103.337891 221.878672,102.478516 221.878672,100.759766 L221.878672,100.759766 L221.878672,84.0019531 C221.878672,83.6699219 222.044687,83.2109375 222.376719,82.625 C222.70875,82.0390625 223.382578,81.7460938 224.398203,81.7460938 C225.882578,81.7460938 226.624766,82.4394531 226.624766,83.8261719 L226.624766,83.8261719 L226.624766,107 L231.400156,107 L231.400156,83.8554688 C231.400156,83.25 231.673594,82.7519531 232.220469,82.3613281 C232.767344,81.9707031 233.255625,81.7753906 233.685312,81.7753906 C234.115,81.7753906 234.632578,81.9121094 235.238047,82.1855469 C235.843516,82.4589844 236.14625,83.0742188 236.14625,84.03125 L236.14625,84.03125 L236.14625,100.789062 C236.14625,102.507812 235.462656,103.367188 234.095469,103.367188 L234.095469,103.367188 L234.095469,107.263672 Z M250.457773,107.454102 C251.932383,107.463867 253.128672,107.3125 254.046641,107 C257.230234,105.945312 258.822031,103.953125 258.822031,101.023438 L258.822031,101.023438 L258.822031,84.4707031 C258.822031,82.5761719 258.060312,80.984375 256.536875,79.6953125 C255.013437,78.40625 253.504648,77.7617188 252.010508,77.7617188 C250.516367,77.7617188 249.339609,77.9179688 248.480234,78.2304688 C245.511484,79.3046875 244.017344,81.2871094 243.997812,84.1777344 L243.997812,84.1777344 L243.997812,89.2167969 L249.007578,89.2167969 L249.007578,84.3242188 C249.007578,82.625 249.749766,81.7753906 251.234141,81.7753906 C251.527109,81.7753906 251.971445,81.9072266 252.567148,82.1708984 C253.162852,82.4345703 253.460703,83.0546875 253.460703,84.03125 L253.460703,84.03125 L253.460703,101.257812 C253.460703,102.78125 252.718516,103.542969 251.234141,103.542969 C249.749766,103.542969 249.007578,102.683594 249.007578,100.964844 L249.007578,100.964844 L249.007578,96.5703125 L243.997812,96.5703125 L243.997812,101.316406 C243.997812,103.171875 244.700937,104.65625 246.107187,105.769531 C247.532969,106.882812 248.983164,107.444336 250.457773,107.454102 Z M269.281016,107.556641 C271.019297,107.556641 272.406016,107.400391 273.441172,107.087891 C276.976328,106.013672 278.743906,104.011719 278.743906,101.082031 L278.743906,101.082031 L278.743906,96.921875 C278.763437,96.0039062 278.538828,95.1640625 278.070078,94.4023438 C276.585703,91.9414062 273.95875,90.7109375 270.189219,90.7109375 C268.587656,90.5351562 267.786875,89.6367188 267.786875,88.015625 L267.786875,88.015625 L267.786875,84.3535156 C267.786875,82.6152344 268.636484,81.7460938 270.335703,81.7460938 C272.034922,81.7460938 272.884531,82.6152344 272.884531,84.3535156 L272.884531,84.3535156 L272.884531,88.0742188 L278.743906,88.0742188 L278.743906,84.3242188 C278.743906,82.4492188 277.894297,80.8867188 276.195078,79.6367188 C274.495859,78.3867188 272.781992,77.7617188 271.053477,77.7617188 C269.324961,77.7617188 267.952891,77.9277344 266.937266,78.2597656 C263.421641,79.3925781 261.654062,81.4140625 261.634531,84.3242188 L261.634531,84.3242188 L261.634531,88.4257812 C261.634531,89.3632812 261.859141,90.2226562 262.308359,91.0039062 C263.792734,93.6210938 266.380625,94.9199219 270.072031,94.9003906 C271.751719,95.1152344 272.591562,96.0039062 272.591562,97.5664062 L272.591562,97.5664062 L272.591562,101.023438 C272.591562,102.742188 271.741953,103.601562 270.042734,103.601562 C268.343516,103.601562 267.493906,102.742188 267.493906,101.023438 L267.493906,101.023438 L267.493906,97.3027344 L261.634531,97.3027344 L261.634531,101.082031 C261.634531,102.9375 262.474375,104.480469 264.154062,105.710938 C265.83375,106.941406 267.542734,107.556641 269.281016,107.556641 Z M306.839609,107.498047 C307.679453,107.517578 308.49,107.351562 309.27125,107 C311.947031,105.828125 313.284922,103.875 313.284922,101.140625 L313.284922,101.140625 L313.284922,84.7050781 C313.284922,82.4785156 312.015391,80.8671875 309.476328,79.8710938 C309.847422,79.8125 310.345469,79.4609375 310.970469,78.8164062 C311.595469,78.171875 311.907969,77.15625 311.907969,75.7695312 C311.907969,72 309.735117,70.1152344 305.389414,70.1152344 C301.043711,70.1152344 298.870859,72.1269531 298.870859,76.1503906 L298.870859,76.1503906 L304.056406,76.1503906 C303.939219,74.7050781 304.339609,73.9824219 305.257578,73.9824219 C306.175547,73.9824219 306.634531,74.734375 306.634531,76.2382812 C306.634531,77.7421875 306.097422,78.4941406 305.023203,78.4941406 L305.023203,78.4941406 L299.544687,78.4941406 C296.810312,78.4941406 294.964609,79.0898438 294.007578,80.28125 C293.206797,78.7382812 291.966562,77.9619141 290.286875,77.9521484 C288.607187,77.9423828 287.318125,78.09375 286.419687,78.40625 C283.1775,79.5 281.566172,81.5117188 281.585703,84.4414062 L281.585703,84.4414062 L281.585703,101.140625 C281.566172,102.195312 281.810312,103.113281 282.318125,103.894531 C283.763437,106.121094 286.224375,107.224609 289.700937,107.205078 L289.700937,107.205078 L289.700937,103.308594 C287.865,103.308594 286.947031,102.46875 286.947031,100.789062 L286.947031,100.789062 L286.947031,84.5292969 C286.947031,82.8300781 287.689219,81.9804688 289.173594,81.9804688 C289.486094,81.9804688 289.935312,82.1269531 290.52125,82.4199219 C291.107187,82.7128906 291.400156,83.3574219 291.400156,84.3535156 L291.400156,84.3535156 L291.400156,107 L296.702891,107 L296.702891,84.6464844 C296.702891,83.2011719 297.249766,82.4785156 298.343516,82.4785156 L298.343516,82.4785156 L300.980234,82.4785156 C299.749766,83.2402344 299.134531,84.3144531 299.134531,85.7011719 L299.134531,85.7011719 L299.163828,101.140625 C299.163828,101.960938 299.339609,102.761719 299.691172,103.542969 C300.882578,106.160156 302.845469,107.478516 305.579844,107.498047 L305.579844,107.498047 L306.839609,107.498047 Z M306.209727,103.630859 C305.067148,103.630859 304.495859,102.78125 304.495859,101.082031 L304.495859,101.082031 L304.495859,85.671875 C304.495859,84.109375 305.072031,83.0449219 306.224375,82.4785156 C307.357187,82.4785156 307.923594,83.3574219 307.923594,85.1152344 L307.923594,85.1152344 L307.923594,101.082031 C307.923594,102.78125 307.352305,103.630859 306.209727,103.630859 Z" id="തനിനാടൻ" fill-rule="nonzero"></path>
            </g>
        </g>
    </g>
</svg>