<svg xmlns="http://www.w3.org/2000/svg" viewBox="0 0 682.35 109"><defs><style>.cls-1{fill:#181818;}.cls-2{fill:#caa97a;}</style></defs><g id="Layer_2" data-name="Layer 2"><g id="Layer_1-2" data-name="Layer 1"><g id="square-eng"><path id="Group" class="cls-1" d="M112.17,96.1V16.23L84.26,22.1V32.27H96.35V96.1Zm55.92,0V78.37h9V64.7h-9V15.89H152.38v49.6h-14.8V28H120.64V78.37h31.63V96.1Zm83,0q22.59,0,33.61-10.73t11-29.15q0-18.4-11.3-28.75T252,17.13H224.12v79Zm1.8-15.59H241.75v-48h9.83q13.44,0,19.94,6.27T278,56.67q0,11.64-6.49,17.74t-18.59,6.1Zm63.5-50.05a9.83,9.83,0,0,0,9.94-9.94,9.95,9.95,0,1,0-19.89,0,9.66,9.66,0,0,0,9.95,9.94ZM324.9,96.1V35.32H308V96.1Zm38.41.91q10.17,0,16.78-5.43a17.63,17.63,0,0,0,6.61-14.34q0-9-6.33-12.88a40.84,40.84,0,0,0-5.82-3q-2.43-1-8.19-2.77a49.53,49.53,0,0,1-8.25-3.16,4.14,4.14,0,0,1-2.48-3.73q0-4.29,7.85-4.29t15.76,5.42h0l6.33-11.29q-10.74-7.23-21.47-7.24t-17.51,5.31a16.66,16.66,0,0,0-6.78,13.73,14,14,0,0,0,6.89,12.71,44.18,44.18,0,0,0,6.05,3.28q2.65,1.13,7.68,2.71a29.64,29.64,0,0,1,7.68,3.39q2.65,1.8,2.66,3.95a4,4,0,0,1-1.92,3.45,9.22,9.22,0,0,1-5.2,1.3q-10.74,0-20.22-7.35h0L336,87.4a41.57,41.57,0,0,0,13.22,7.18A44.85,44.85,0,0,0,363.31,97Zm56.32,0q8.76,0,16.66-7.23h0L430,77.91a9.79,9.79,0,0,1-8,4.3,5.64,5.64,0,0,1-4.29-2,7.84,7.84,0,0,1-1.81-5.48h0V48.54h14.69V35.32H415.84V17.13H398.78V75.54q0,9.94,6.05,15.7A20.61,20.61,0,0,0,419.63,97Zm42.42-.91V69.78q0-8.82,3.73-14.18t11.3-5.37h3.27l-.11-15.93a22.25,22.25,0,0,0-10,2.72,28.67,28.67,0,0,0-8.19,6.32h0v-8H445.1V96.1Zm38-65.64A9.83,9.83,0,0,0,510,20.52a9.94,9.94,0,1,0-19.88,0A9.64,9.64,0,0,0,500,30.46Zm8.47,65.64V35.32H491.54V96.1Zm45.08.91q13.68,0,25.42-12.2h0l-10.05-11.3Q562.15,82,553.67,82a16.34,16.34,0,0,1-11.24-4.29c-3.2-2.86-4.8-6.88-4.8-12s1.6-9.19,4.8-12.09a16.51,16.51,0,0,1,11.47-4.35,21,21,0,0,1,15.59,7.34h0L578.3,45a33.45,33.45,0,0,0-11.8-8,35.28,35.28,0,0,0-13.28-2.72,32.39,32.39,0,0,0-22.65,8.76Q521,51.82,521,65.77t9.44,22.59Q539.9,97,553.56,97Zm57.56,0q8.76,0,16.67-7.23h0l-6.33-11.87a9.77,9.77,0,0,1-8,4.3,5.61,5.61,0,0,1-4.29-2,7.79,7.79,0,0,1-1.81-5.48h0V48.54H622V35.32H607.34V17.13H590.28V75.54q0,9.94,6,15.7A20.63,20.63,0,0,0,611.12,97ZM659,97q10.17,0,16.78-5.43a17.63,17.63,0,0,0,6.6-14.34q0-9-6.32-12.88a40.84,40.84,0,0,0-5.82-3q-2.43-1-8.19-2.77a49.53,49.53,0,0,1-8.25-3.16,4.12,4.12,0,0,1-2.48-3.73q0-4.29,7.85-4.29t15.76,5.42h0l6.32-11.29q-10.72-7.23-21.46-7.24t-17.51,5.31a16.66,16.66,0,0,0-6.78,13.73,14,14,0,0,0,6.89,12.71,44.13,44.13,0,0,0,6,3.28c1.77.75,4.34,1.65,7.69,2.71a29.64,29.64,0,0,1,7.68,3.39q2.65,1.8,2.65,3.95a4,4,0,0,1-1.92,3.45,9.18,9.18,0,0,1-5.19,1.3q-10.74,0-20.23-7.35h0L631.63,87.4a41.46,41.46,0,0,0,13.22,7.18A44.85,44.85,0,0,0,659,97Z"/></g><g id="Fill-2"><polygon class="cls-2" points="63 22 0 22 0 9.53 50.35 9.53 50.35 0 58.37 0 63 22"/><path class="cls-2" d="M30.35,53.22l-.22-11.64H50.67V28H18.47V53.22H0V79.66C0,99.4,13.8,109,32.36,109,53.51,109,64,96.41,64,79.66V53.22ZM53,76.86C53,90.51,44.62,95,31.5,95,17.1,95,12,87.34,12,79.33V67h6.75v9.21H31.24L31.06,67H53Z"/></g></g></g></svg>