<?xml version="1.0" encoding="utf-8"?>
<!-- Generator: Adobe Illustrator 24.2.3, SVG Export Plug-In . SVG Version: 6.00 Build 0)  -->
<svg version="1.1" id="Layer_1" xmlns="http://www.w3.org/2000/svg" xmlns:xlink="http://www.w3.org/1999/xlink" x="0px" y="0px"
	 viewBox="0 0 682.3 109" style="enable-background:new 0 0 682.3 109;" xml:space="preserve">
<style type="text/css">
	.st0{fill:#FFFFFF;}
	.st1{fill:#CAA97A;}
</style>
<g id="Layer_2_1_">
	<g id="Layer_1-2">
		<g id="square-eng">
			<path id="Group" class="st0" d="M112.2,96.1V16.2l-27.9,5.9v10.2h12.1v63.8H112.2z M168.1,96.1V78.4h9V64.7h-9V15.9h-15.7v49.6
				h-14.8V28h-16.9v50.4h31.6v17.7H168.1z M251.1,96.1c15.1,0,26.3-3.6,33.6-10.7c7.3-7.2,11-16.9,11-29.2
				c0-12.3-3.8-21.9-11.3-28.8S266.1,17.1,252,17.1h-27.9v79L251.1,96.1z M252.9,80.5h-11.1v-48h9.8c9,0,15.6,2.1,19.9,6.3
				c4.3,4.2,6.5,10.1,6.5,17.9c0,7.8-2.2,13.7-6.5,17.7S261,80.5,252.9,80.5L252.9,80.5z M316.4,30.5c5.4,0.1,9.9-4.3,9.9-9.7
				c0-0.1,0-0.1,0-0.2c0.2-5.5-4.1-10.1-9.6-10.3c-5.5-0.2-10.1,4.1-10.3,9.6c0,0.2,0,0.4,0,0.6c-0.2,5.3,4,9.8,9.4,9.9
				C316,30.5,316.2,30.5,316.4,30.5z M324.9,96.1V35.3H308v60.8H324.9z M363.3,97c6.8,0,12.4-1.8,16.8-5.4c4.3-3.5,6.8-8.8,6.6-14.3
				c0-6-2.1-10.3-6.3-12.9c-1.9-1.2-3.8-2.2-5.8-3c-1.6-0.7-4.4-1.6-8.2-2.8c-2.8-0.8-5.6-1.9-8.2-3.2c-1.5-0.7-2.5-2.1-2.5-3.7
				c0-2.9,2.6-4.3,7.9-4.3s10.5,1.8,15.8,5.4l0,0l6.3-11.3c-7.2-4.8-14.3-7.2-21.5-7.2s-13,1.8-17.5,5.3c-4.4,3.2-6.9,8.3-6.8,13.7
				c-0.2,5.2,2.4,10.1,6.9,12.7c1.9,1.2,4,2.3,6,3.3c1.8,0.8,4.3,1.7,7.7,2.7c2.7,0.8,5.3,1.9,7.7,3.4c1.8,1.2,2.7,2.5,2.7,3.9
				c0,1.4-0.7,2.7-1.9,3.4c-1.6,0.9-3.4,1.4-5.2,1.3c-7.2,0-13.9-2.5-20.2-7.3l0,0L336,87.4c3.9,3.2,8.4,5.6,13.2,7.2
				C353.8,96.1,358.5,97,363.3,97L363.3,97z M419.6,97c5.8,0,11.4-2.4,16.7-7.2l0,0L430,77.9c-1.8,2.7-4.8,4.3-8,4.3
				c-1.7,0-3.2-0.7-4.3-2c-1.3-1.5-1.9-3.5-1.8-5.5l0,0V48.5h14.7V35.3h-14.8V17.1h-17.1v58.4c0,6.6,2,11.9,6,15.7
				C408.8,95.1,414.1,97.1,419.6,97L419.6,97z M462,96.1V69.8c0-5.9,1.2-10.6,3.7-14.2c2.5-3.6,6.3-5.4,11.3-5.4h3.3l-0.1-15.9
				c-3.5,0.1-6.9,1-10,2.7c-3.1,1.6-5.9,3.7-8.2,6.3l0,0v-8h-16.9v60.8H462z M500,30.5c5.4,0.1,9.9-4.3,9.9-9.7c0-0.1,0-0.2,0-0.2
				c0-5.5-4.5-9.9-9.9-9.9s-9.9,4.5-9.9,9.9c-0.2,5.3,4,9.8,9.3,9.9C499.6,30.5,499.8,30.5,500,30.5L500,30.5z M508.5,96.1V35.3h-17
				v60.8H508.5z M553.6,97c9.1,0,17.6-4.1,25.4-12.2l0,0l-10-11.3c-4.5,5.7-9.6,8.5-15.3,8.5c-4.2,0.1-8.2-1.5-11.2-4.3
				c-3.2-2.9-4.8-6.9-4.8-12s1.6-9.2,4.8-12.1c3.1-2.9,7.2-4.4,11.5-4.3c6,0.1,11.7,2.8,15.6,7.3l0,0l8.8-11.6
				c-3.3-3.5-7.3-6.2-11.8-8c-4.2-1.8-8.7-2.7-13.3-2.7c-8.4-0.1-16.5,3-22.7,8.8c-6.4,5.9-9.6,13.4-9.6,22.7s3.1,16.8,9.4,22.6
				C536.7,94.1,544.5,97,553.6,97L553.6,97z M611.2,97c5.8,0,11.4-2.4,16.7-7.2l0,0l-6.3-11.9c-1.8,2.7-4.8,4.3-8,4.3
				c-1.7,0-3.2-0.7-4.3-2c-1.3-1.5-1.9-3.5-1.8-5.5l0,0V48.5H622V35.3h-14.7V17.1h-17.1v58.4c0,6.6,2,11.9,6,15.7
				C600.3,95.1,605.6,97.1,611.2,97L611.2,97z M659,97c6.8,0,12.4-1.8,16.8-5.4c4.3-3.5,6.8-8.8,6.6-14.3c0-6-2.1-10.3-6.3-12.9
				c-1.9-1.2-3.8-2.2-5.8-3c-1.6-0.7-4.4-1.6-8.2-2.8c-2.8-0.8-5.6-1.9-8.2-3.2c-1.5-0.6-2.5-2.1-2.5-3.7c0-2.9,2.6-4.3,7.8-4.3
				c5.2,0,10.5,1.8,15.8,5.4l0,0l6.3-11.3c-7.1-4.8-14.3-7.2-21.5-7.2s-13,1.8-17.5,5.3c-4.4,3.2-6.9,8.3-6.8,13.7
				c-0.2,5.2,2.4,10.1,6.9,12.7c1.9,1.2,3.9,2.3,6,3.3c1.8,0.8,4.3,1.7,7.7,2.7c2.7,0.8,5.3,1.9,7.7,3.4c1.8,1.2,2.7,2.5,2.7,3.9
				c0,1.4-0.7,2.7-1.9,3.4c-1.6,0.9-3.4,1.4-5.2,1.3c-7.2,0-13.9-2.5-20.2-7.3l0,0l-7.4,10.6c3.9,3.2,8.4,5.6,13.2,7.2
				C649.4,96.1,654.2,97,659,97z"/>
		</g>
	</g>
</g>
<g id="Fill-2">
	<polygon class="st1" points="63,22 0,22 0,9.5 50.3,9.5 50.3,0 58.4,0 	"/>
	<path class="st1" d="M30.4,53.2l-0.2-11.6h20.5V28H18.5v25.2H0v26.4C0,99.4,13.8,109,32.4,109C53.5,109,64,96.4,64,79.7V53.2H30.4z
		 M53,76.9C53,90.5,44.6,95,31.5,95C17.1,95,12,87.3,12,79.3V67h6.8v9.2h12.5L31.1,67H53V76.9z"/>
</g>
</svg>
